<?xml version="1.0" encoding="UTF-8"?>
<svg version="1.1" xmlns="http://www.w3.org/2000/svg" width="572" height="304">
<path d="M0 0 C6.37969285 4.31679815 11.57324675 8.7823017 13.95703125 16.32421875 C14.737665 20.7159474 15.07979843 25.03168337 15.24707031 29.47729492 C15.58368334 38.03287604 15.98533776 46.52089904 21.08203125 53.76171875 C27.20853645 59.22229947 34.98902257 59.7416195 42.89453125 60.26171875 C53.15673707 61.13948168 61.39598524 62.8785732 69.1328125 70.12890625 C75.7761032 78.12361583 78.35793058 87.15136327 78.234375 97.3515625 C77.20009942 108.43724863 71.11921667 116.7867759 63.05859375 124 C56.70248706 128.00505607 50.34169331 128.83347217 43.01953125 129.32421875 C35.09908114 129.85750078 27.21347978 130.42173201 21.08203125 135.88671875 C17.42906234 141.02331668 16.3877051 147.27143088 15.09765625 153.328125 C12.61534899 164.84150085 9.92986464 176.34194819 0.14453125 183.921875 C-7.56407983 188.86364532 -14.93339615 190.47762717 -24.04296875 189.32421875 C-32.41973058 187.35711637 -38.8518911 183.96249714 -43.765625 176.8203125 C-49.24359797 167.92346278 -50.30943929 159.63090994 -49.04296875 149.32421875 C-46.6020854 141.15491542 -42.12591865 135.01490402 -35.04296875 130.32421875 C-26.80541704 126.13982914 -18.28709479 125.07841672 -9.23242188 123.90234375 C2.07268534 122.32187993 2.07268534 122.32187993 11.11328125 115.88671875 C11.7784375 114.61828125 11.7784375 114.61828125 12.45703125 113.32421875 C12.92109375 112.47859375 13.38515625 111.63296875 13.86328125 110.76171875 C17.58819681 102.46047835 17.20615998 90.87062188 15.23828125 82.1328125 C14.30266198 79.72208383 13.25490335 77.55874288 11.95703125 75.32421875 C11.54839844 74.5765625 11.13976562 73.82890625 10.71875 73.05859375 C8.17209863 68.67488428 5.84703914 65.13261256 0.72265625 63.69921875 C-0.52257812 63.51359375 -0.52257812 63.51359375 -1.79296875 63.32421875 C-3.23736328 63.08638672 -3.23736328 63.08638672 -4.7109375 62.84375 C-5.81050781 62.67230469 -6.91007812 62.50085938 -8.04296875 62.32421875 C-20.86376987 60.32136723 -32.64990194 58.17270404 -41.04296875 47.32421875 C-46.48579901 38.46302558 -47.71101442 28.67969725 -45.39453125 18.46484375 C-42.37619048 10.1579572 -36.78807738 3.60874693 -29.04296875 -0.67578125 C-20.38696656 -4.13818213 -8.33828401 -4.54380678 0 0 Z " fill="#F54150" transform="translate(303.04296875,2.67578125)"/>
<path d="M0 0 C7.64049035 5.35125946 13.03232012 12.50040951 14.796875 21.74609375 C15.85393503 31.27268412 14.45902517 39.64498477 8.80859375 47.515625 C2.90739034 54.47680277 -3.3276355 59.06634519 -12.61328125 59.984375 C-21.59161238 60.2356096 -29.3344386 58.32994401 -36.515625 52.74609375 C-43.46439213 46.04039049 -47.04209547 37.26911763 -47.3671875 27.69140625 C-46.82875756 18.0253069 -43.31262669 9.76769004 -36.38671875 2.9609375 C-25.8259341 -5.72237432 -11.84063174 -6.73908296 0 0 Z " fill="#111111" transform="translate(409.203125,133.25390625)"/>
<path d="M0 0 C6.64055077 7.34866637 8.90126672 15.2454073 8.70898438 25.02319336 C8.23873428 33.96756393 5.29493639 40.61487375 -0.8125 47.1171875 C-8.3170953 53.71302321 -15.67487907 55.25068788 -25.421875 55.15234375 C-33.54312968 54.48804757 -40.37909768 50.91827401 -45.8125 44.875 C-52.63421652 35.80356845 -53.72112376 27.08135973 -52.8125 15.875 C-51.14809546 8.10075599 -46.76616976 2.04368248 -40.8125 -3.125 C-27.36798182 -11.81829185 -12.01182313 -10.79248039 0 0 Z " fill="#111111" transform="translate(245.8125,74.125)"/>
<path d="M0 0 C8.14073907 6.81978896 12.70250576 14.25630293 13.65234375 24.9375 C13.80700607 33.87979386 11.27091992 41.42853834 5.6953125 48.421875 C-1.05094136 55.15544793 -8.2523814 58.43226699 -17.7421875 58.859375 C-26.44563685 58.56763927 -33.26021336 55.28239403 -39.55078125 49.34765625 C-46.69912521 41.49880643 -48.80815024 33.45898985 -48.609375 22.95703125 C-47.80299508 13.60095653 -43.34699808 6.52521084 -36.3046875 0.421875 C-24.64682246 -7.01289737 -11.72868117 -8.03116474 0 0 Z " fill="#111111" transform="translate(185.3046875,134.578125)"/>
<path d="M0 0 C5.73375 -0.04125 11.4675 -0.0825 17.375 -0.125 C19.16341309 -0.14320801 20.95182617 -0.16141602 22.79443359 -0.18017578 C44.46293719 -0.3100991 44.46293719 -0.3100991 52 6 C56.385622 10.4332918 58.10111786 14.06429105 58.3125 20.25 C58.23906543 25.20275392 56.96587036 29.01854373 54 33 C52.0662046 34.67438382 50.26482944 35.76463848 48 37 C48.94875 37.680625 49.8975 38.36125 50.875 39.0625 C54.25902236 41.9222372 55.27996961 44.70304442 56 49 C56.17144531 49.99386719 56.34289062 50.98773438 56.51953125 52.01171875 C56.87217097 54.11487218 57.21149544 56.22031742 57.53515625 58.328125 C57.94740131 61.09044026 57.94740131 61.09044026 59 64 C52.73 64 46.46 64 40 64 C38.45503112 58.59260891 37.50091292 53.86072787 36.85546875 48.35546875 C36.21599962 45.8222262 36.21599962 45.8222262 33.8515625 44.71484375 C30.6011349 43.90001053 27.53205737 43.57770045 24.1875 43.375 C22.145625 43.25125 20.10375 43.1275 18 43 C18 49.93 18 56.86 18 64 C12.06 64 6.12 64 0 64 C0 42.88 0 21.76 0 0 Z M18 15 C18 19.62 18 24.24 18 29 C20.91722548 29.08103404 23.83219516 29.14051081 26.75 29.1875 C27.575 29.21263672 28.4 29.23777344 29.25 29.26367188 C34.07299069 29.3285849 34.07299069 29.3285849 38.54296875 27.703125 C40.31706638 25.92751944 40.31706638 25.92751944 40.5625 22.5625 C40.32475175 18.95838974 40.32475175 18.95838974 38.015625 16.79296875 C33.94400415 14.37214755 30.82134515 14.54802184 26.1875 14.75 C25.39923828 14.76804688 24.61097656 14.78609375 23.79882812 14.8046875 C21.86535739 14.85155952 19.93251715 14.9232959 18 15 Z " fill="#111111" transform="translate(274,239)"/>
<path d="M0 0 C8.53875 -0.0928125 8.53875 -0.0928125 17.25 -0.1875 C19.02020508 -0.21481201 20.79041016 -0.24212402 22.61425781 -0.27026367 C43.91781316 -0.46225514 43.91781316 -0.46225514 51.5625 5.3125 C56.9322898 11.23303747 57.54773576 16.09558049 57.3515625 23.93359375 C56.72572477 29.39228951 54.26881921 31.90420159 50.25 35.375 C49.5075 35.91125 48.765 36.4475 48 37 C48.78375 37.7425 49.5675 38.485 50.375 39.25 C54.57212879 43.64699206 55.30461163 46.98784356 56.0625 53 C56.54598878 56.77201166 57.07642272 60.30569087 58 64 C52.06 64 46.12 64 40 64 C37.75184323 59.50368645 37.24446391 55.70331519 36.5625 50.77734375 C36.14269425 47.80400094 36.14269425 47.80400094 34 45 C30.53287889 43.84429296 27.4585044 43.67164707 23.8125 43.4375 C21.564375 43.293125 19.31625 43.14875 17 43 C17 49.93 17 56.86 17 64 C11.39 64 5.78 64 0 64 C0 42.88 0 21.76 0 0 Z M17 15 C17 19.62 17 24.24 17 29 C20.08479556 29.13503482 23.16368583 29.23411031 26.25 29.3125 C27.12269531 29.35439453 27.99539062 29.39628906 28.89453125 29.43945312 C34.25555106 29.60005837 34.25555106 29.60005837 38.60546875 26.67578125 C40.23070463 24.04083102 40.23070463 24.04083102 40.0625 20.875 C39.24240742 17.91667287 39.24240742 17.91667287 36.984375 16.33203125 C32.95275535 14.53257798 29.5427429 14.67012408 25.1875 14.8125 C24.00510742 14.83280273 24.00510742 14.83280273 22.79882812 14.85351562 C20.86558831 14.88866544 18.93270318 14.94246639 17 15 Z " fill="#111111" transform="translate(0,239)"/>
<path d="M0 0 C3.74876715 2.66739201 6.19631145 5.2051229 8.25 9.3125 C8.40266612 11.05118744 8.49932596 12.79497501 8.56640625 14.5390625 C8.60830078 15.5703125 8.65019531 16.6015625 8.69335938 17.6640625 C8.73267578 18.74429687 8.77199219 19.82453125 8.8125 20.9375 C8.85568359 22.02546875 8.89886719 23.1134375 8.94335938 24.234375 C9.0496453 26.9269517 9.15168057 29.61962253 9.25 32.3125 C12.19729537 33.47061388 12.19729537 33.47061388 15.25 33.3125 C15.53782376 36.36343186 15.64946991 39.26789152 15.25 42.3125 C12.94823627 44.93174838 11.10185835 45.19830635 7.71484375 45.65234375 C0.84385434 46.03984109 -2.62666332 44.86657705 -7.75 40.3125 C-8.513125 40.951875 -9.27625 41.59125 -10.0625 42.25 C-15.38866409 46.33752128 -21.29696379 45.79050268 -27.75 45.3125 C-32.09436526 43.78816131 -34.35106518 42.20395392 -36.75 38.3125 C-37.5522751 33.46271086 -37.45019645 28.87960634 -35.4375 24.375 C-28.10509217 18.74780329 -18.69342337 17.49871322 -9.75 16.3125 C-9.75 14.9925 -9.75 13.6725 -9.75 12.3125 C-12.1997481 11.43758996 -13.38448293 11.18349397 -15.875 12.0625 C-18.04166667 13.33333333 -18.04166667 13.33333333 -19.75 16.3125 C-21.66796875 16.640625 -21.66796875 16.640625 -23.9375 16.5625 C-24.73414062 16.53671875 -25.53078125 16.5109375 -26.3515625 16.484375 C-29.52649995 16.25685505 -32.61214192 15.8466035 -35.75 15.3125 C-34.14375424 8.4285896 -31.84311659 4.10515421 -25.75 0.3125 C-18.74660039 -3.24420033 -7.12688327 -3.32767517 0 0 Z M-15.3125 26.5625 C-16.11816406 26.79453125 -16.92382812 27.0265625 -17.75390625 27.265625 C-19.91625124 28.13928095 -19.91625124 28.13928095 -20.65234375 30.296875 C-20.68457031 30.96203125 -20.71679688 31.6271875 -20.75 32.3125 C-20.09 32.9725 -19.43 33.6325 -18.75 34.3125 C-13.80411167 34.14776681 -13.80411167 34.14776681 -9.8125 31.5 C-8.45873069 29.11814199 -8.45873069 29.11814199 -8.75 25.3125 C-11.14689675 25.3125 -13.01713929 25.86983898 -15.3125 26.5625 Z " fill="#111111" transform="translate(149.75,258.6875)"/>
<path d="M0 0 C5.61 0 11.22 0 17 0 C17.06058594 1.97484375 17.12117188 3.9496875 17.18359375 5.984375 C17.26800296 8.57292405 17.35265077 11.16146533 17.4375 13.75 C17.47681641 15.05195313 17.51613281 16.35390625 17.55664062 17.6953125 C17.59853516 18.94570313 17.64042969 20.19609375 17.68359375 21.484375 C17.72025146 22.63647461 17.75690918 23.78857422 17.79467773 24.97558594 C17.96452174 27.47740224 18.27968475 29.61091168 19 32 C23.38887684 32.40546101 23.38887684 32.40546101 27.16503906 30.39160156 C29.54934213 27.28401337 29.53862498 25.37562628 29.609375 21.484375 C29.64160156 20.23398437 29.67382812 18.98359375 29.70703125 17.6953125 C29.72121094 16.39335937 29.73539062 15.09140625 29.75 13.75 C29.77964844 12.43257813 29.80929687 11.11515625 29.83984375 9.7578125 C29.91054536 6.50553866 29.9575357 3.25276508 30 0 C35.61 0 41.22 0 47 0 C47 14.85 47 29.7 47 45 C41.39 45 35.78 45 30 45 C29.67 44.01 29.34 43.02 29 42 C28.278125 42.66 27.55625 43.32 26.8125 44 C21.91668024 47.29120897 15.6317368 46.78238146 10 46 C5.93855889 43.98364098 3.60147834 41.71639763 1 38 C-0.23180134 34.30459598 -0.12412112 30.89696622 -0.09765625 27.05078125 C-0.0962413 26.27816452 -0.09482635 25.50554779 -0.09336853 24.70951843 C-0.08777466 22.24380611 -0.07522333 19.77818485 -0.0625 17.3125 C-0.05748421 15.63997527 -0.05292144 13.96744912 -0.04882812 12.29492188 C-0.03865847 8.19655134 -0.01908194 4.09837752 0 0 Z " fill="#121212" transform="translate(391,258)"/>
<path d="M0 0 C6.47213486 3.84249466 9.75668778 8.41503417 11.87109375 15.65234375 C13.50609661 22.86410054 11.9836139 29.61928053 8.15625 35.86328125 C4.46662145 40.6495494 0.25886492 43.4645416 -5.625 44.875 C-14.08674084 45.76619312 -22.45393452 45.95638392 -29.625 40.875 C-35.71482728 35.68587565 -38.05375397 29.28175509 -39.0625 21.5 C-38.03584246 12.99340893 -35.47704728 6.72618895 -28.8203125 1.21484375 C-20.51271577 -3.85545105 -8.74318976 -4.08278081 0 0 Z M-19.0625 12.6875 C-21.37841404 17.41196465 -21.37596692 21.71113471 -20.625 26.875 C-19.31444108 30.16404021 -19.31444108 30.16404021 -16.625 31.875 C-13.125 32.70833333 -13.125 32.70833333 -9.625 31.875 C-6.93555892 30.16404021 -6.93555892 30.16404021 -5.625 26.875 C-4.87403308 21.71113471 -4.87158596 17.41196465 -7.1875 12.6875 C-9.60213716 10.61041201 -9.60213716 10.61041201 -13.125 10.25 C-16.64786284 10.61041201 -16.64786284 10.61041201 -19.0625 12.6875 Z " fill="#121212" transform="translate(373.625,259.125)"/>
<path d="M0 0 C4.88234686 3.01024872 8.31047534 7.13222229 10.8125 12.25 C11.4375 15.4375 11.4375 15.4375 11.4375 25.4375 C-3.9075 25.9325 -3.9075 25.9325 -19.5625 26.4375 C-18.0625 30.4375 -18.0625 30.4375 -15.5625 31.4375 C-12.52563539 31.80144645 -9.5950588 31.85321105 -6.5625 31.4375 C-5.386875 30.4165625 -5.386875 30.4165625 -4.1875 29.375 C-0.41502196 26.59055192 2.49561623 27.38170234 7.01171875 27.8828125 C9.4375 28.4375 9.4375 28.4375 11.4375 30.4375 C8.65720486 37.02843495 5.79574905 41.2468049 -0.76953125 44.546875 C-7.82716111 46.79741991 -17.74061148 46.62467065 -24.625 43.9375 C-30.3694035 40.81219235 -35.12774078 35.89210962 -37.0625 29.5625 C-38.46667001 21.60553659 -37.01225181 14.15722655 -32.5625 7.4375 C-24.73176949 -2.13339284 -11.51403895 -5.12474566 0 0 Z M-18.5625 12.4375 C-18.8925 14.0875 -19.2225 15.7375 -19.5625 17.4375 C-14.9425 17.4375 -10.3225 17.4375 -5.5625 17.4375 C-5.8925 15.7875 -6.2225 14.1375 -6.5625 12.4375 C-10.66749383 9.70083745 -14.47023458 9.36830093 -18.5625 12.4375 Z " fill="#121212" transform="translate(517.5625,258.5625)"/>
<path d="M0 0 C5.32754657 3.11142903 8.40889807 7.03919422 10.375 12.9375 C10.375 16.8975 10.375 20.8575 10.375 24.9375 C0.145 24.9375 -10.085 24.9375 -20.625 24.9375 C-18.85648964 28.11824165 -18.85648964 28.11824165 -16.625 30.9375 C-13.59225237 31.31972646 -10.65475907 31.34636022 -7.625 30.9375 C-6.84125 30.256875 -6.0575 29.57625 -5.25 28.875 C-1.47315962 26.0873321 1.43619587 26.92473792 5.94921875 27.48046875 C8.375 27.9375 8.375 27.9375 10.375 28.9375 C9.83371375 33.53843315 8.38466632 36.41398821 5.375 39.9375 C-2.37161097 45.93994501 -11.29964175 46.09134757 -20.625 44.9375 C-28.09124613 42.84541561 -32.82800404 38.63478438 -36.625 31.9375 C-38.79811072 25.41816783 -38.63546897 17.47691411 -36.125 11.0625 C-33.29705191 5.59781739 -28.78451507 1.53332287 -23.3203125 -1.2265625 C-15.99164533 -3.49951145 -6.98061249 -3.19113714 0 0 Z M-20.625 14.9375 C-20.625 15.5975 -20.625 16.2575 -20.625 16.9375 C-15.675 16.9375 -10.725 16.9375 -5.625 16.9375 C-7.10139003 11.87741361 -7.10139003 11.87741361 -10.625 9.9375 C-15.63429437 9.01473525 -17.51113712 11.20086454 -20.625 14.9375 Z " fill="#121212" transform="translate(98.625,259.0625)"/>
<path d="M0 0 C4.68118509 2.91681685 8.49223884 6.58353841 10.25 11.890625 C10.73976924 14.05377248 11.10025235 16.24539029 11.4375 18.4375 C6.4875 18.7675 1.5375 19.0975 -3.5625 19.4375 C-4.5525 17.4575 -5.5425 15.4775 -6.5625 13.4375 C-7.72627902 12.05607444 -7.72627902 12.05607444 -10.9375 12.1875 C-14.44692266 12.1164551 -14.44692266 12.1164551 -16.4375 13.75 C-18.94719321 17.51453982 -18.86002696 21.04897732 -18.5625 25.4375 C-17.18035878 28.78911246 -17.18035878 28.78911246 -15.5625 31.4375 C-11.54219702 31.70599027 -11.54219702 31.70599027 -7.5625 31.4375 C-5.16177554 29.19166099 -4.60496482 27.56489447 -3.5625 24.4375 C1.3875 24.7675 6.3375 25.0975 11.4375 25.4375 C10.39531206 32.84861425 8.23071664 37.55085543 2.4375 42.4375 C-4.34174286 46.61674915 -11.86851545 46.42125044 -19.5625 45.4375 C-26.78535261 43.52556843 -30.70054645 39.83723025 -34.50390625 33.5234375 C-37.74322599 27.14042369 -37.66388715 19.38100325 -35.76171875 12.5703125 C-32.90675765 6.11476473 -28.80198598 2.60398071 -22.5625 -0.5625 C-16.01003454 -2.74665515 -6.38779409 -2.9080619 0 0 Z " fill="#111111" transform="translate(202.5625,258.5625)"/>
<path d="M0 0 C2.83203125 0.03255208 5.6640625 0.06510417 8.49609375 0.09765625 C8.49609375 4.38765625 8.49609375 8.67765625 8.49609375 13.09765625 C12.45609375 13.09765625 16.41609375 13.09765625 20.49609375 13.09765625 C20.49609375 17.05765625 20.49609375 21.01765625 20.49609375 25.09765625 C16.53609375 25.09765625 12.57609375 25.09765625 8.49609375 25.09765625 C8.82609375 31.36765625 9.15609375 37.63765625 9.49609375 44.09765625 C13.98811761 44.99606102 16.17990072 45.00104549 20.49609375 44.09765625 C20.49609375 48.05765625 20.49609375 52.01765625 20.49609375 56.09765625 C15.83919833 58.80699201 12.36740114 59.5296976 6.99609375 59.53515625 C5.0934375 59.56416016 5.0934375 59.56416016 3.15234375 59.59375 C-1.11131692 59.01524049 -3.22237236 57.84352799 -6.50390625 55.09765625 C-8.70028089 51.74918412 -8.73794949 48.97006698 -8.69921875 45.01953125 C-8.69277344 43.859375 -8.68632812 42.69921875 -8.6796875 41.50390625 C-8.66292969 40.29734375 -8.64617187 39.09078125 -8.62890625 37.84765625 C-8.61988281 36.625625 -8.61085937 35.40359375 -8.6015625 34.14453125 C-8.57800138 31.12870843 -8.54510331 28.11328133 -8.50390625 25.09765625 C-10.48390625 25.09765625 -12.46390625 25.09765625 -14.50390625 25.09765625 C-14.50390625 21.46765625 -14.50390625 17.83765625 -14.50390625 14.09765625 C-11.86390625 13.43765625 -9.22390625 12.77765625 -6.50390625 12.09765625 C-6.29894531 11.31519531 -6.09398437 10.53273437 -5.8828125 9.7265625 C-5.61339844 8.71464844 -5.34398437 7.70273438 -5.06640625 6.66015625 C-4.79957031 5.65082031 -4.53273437 4.64148438 -4.2578125 3.6015625 C-3.21111905 0.12523865 -3.21111905 0.12523865 0 0 Z " fill="#121212" transform="translate(229.50390625,244.90234375)"/>
<path d="M0 0 C3.63 0 7.26 0 11 0 C11 4.29 11 8.58 11 13 C14.96 13 18.92 13 23 13 C23 16.96 23 20.92 23 25 C19.04 25 15.08 25 11 25 C11.33 30.94 11.66 36.88 12 43 C16.94554184 44.97821674 18.13160991 45.13218374 23 44 C23 47.96 23 51.92 23 56 C18.4667153 58.61615514 15.15916257 59.40909138 9.9375 59.375 C8.15666016 59.38660156 8.15666016 59.38660156 6.33984375 59.3984375 C1.53704898 58.82547251 -1.9126032 56.70487616 -5 53 C-6.0592918 49.82212459 -6.11458939 47.57411057 -6.09765625 44.23828125 C-6.09443359 43.12001953 -6.09121094 42.00175781 -6.08789062 40.84960938 C-6.07951172 39.68236328 -6.07113281 38.51511719 -6.0625 37.3125 C-6.05798828 36.13365234 -6.05347656 34.95480469 -6.04882812 33.74023438 C-6.03703273 30.82677211 -6.0205727 27.91341137 -6 25 C-7.98 25 -9.96 25 -12 25 C-12 21.37 -12 17.74 -12 14 C-10.7625 13.731875 -9.525 13.46375 -8.25 13.1875 C-5.0981003 12.05862812 -4.18759836 11.34942772 -2.578125 8.3515625 C-1.59733701 5.58687751 -0.73287554 2.83989272 0 0 Z " fill="#121212" transform="translate(454,245)"/>
<path d="M0 0 C0.66 0.33 1.32 0.66 2 1 C1.67 6.28 1.34 11.56 1 17 C-2.28776042 16.93489583 -5.57552083 16.86979167 -8.86328125 16.8046875 C-12.16393661 16.74679382 -12.16393661 16.74679382 -15 19 C-16.01587978 22.04763934 -16.19804406 24.34718967 -16.31640625 27.54296875 C-16.35830078 28.61611328 -16.40019531 29.68925781 -16.44335938 30.79492188 C-16.48267578 31.91447266 -16.52199219 33.03402344 -16.5625 34.1875 C-16.60568359 35.31865234 -16.64886719 36.44980469 -16.69335938 37.61523438 C-16.7994901 40.41001025 -16.90025397 43.20498898 -17 46 C-22.61 46 -28.22 46 -34 46 C-34 31.15 -34 16.3 -34 1 C-28.39 1 -22.78 1 -17 1 C-16.67 2.32 -16.34 3.64 -16 5 C-15.21625 4.175 -14.4325 3.35 -13.625 2.5 C-9.52375466 -0.97330347 -5.13037474 -0.64591049 0 0 Z " fill="#121212" transform="translate(569,257)"/>
</svg>
